<?xml version="1.0" encoding="UTF-8" standalone="no"?>
<svg width="50px" height="50px" viewBox="0 0 50 50" version="1.1" xmlns="http://www.w3.org/2000/svg" xmlns:xlink="http://www.w3.org/1999/xlink">
    <!-- Generator: Sketch 50.2 (55047) - http://www.bohemiancoding.com/sketch -->
    <title>Asset</title>
    <desc>Created with Sketch.</desc>
    <defs></defs>
    <g id="Asset" stroke="none" stroke-width="1" fill="none" fill-rule="evenodd">
        <g id="react-38fa1a7e6e4a44bc074cf91f4151c524b0d041adf0b72ba2517665bacda1b0bb" transform="translate(0.000000, 3.000000)" fill="#4DC8ED" fill-rule="nonzero">
            <path d="M24.9445501,27.0034812 C27.4119819,27.0034812 29.4122307,24.9768244 29.4122307,22.4768165 C29.4122307,19.9768086 27.4119819,17.9501518 24.9445501,17.9501518 C22.4771182,17.9501518 20.4768695,19.9768086 20.4768695,22.4768165 C20.4768695,24.9768244 22.4771182,27.0034812 24.9445501,27.0034812 Z M47.3621673,17.9662038 C45.4632064,16.4716235 43.317571,15.3302929 41.0250317,14.5952833 C40.4969371,14.4080099 39.9688424,14.2341132 39.4407478,14.0735932 C39.5358048,13.6990465 39.6229404,13.3244997 39.7021546,12.949953 C40.9458175,6.85019206 40.0586185,2.09879933 37.404943,0.541755084 C36.1058302,-0.180585028 34.3155894,-0.180585028 32.2560203,0.541755084 C30.0355615,1.45533569 27.9920548,2.75957876 26.2198986,4.39423568 L25.0316857,5.59813587 L24.1603295,4.79553574 C19.5659062,0.702275109 15.0506971,-0.90292514 12.4366286,0.622015096 C11.1692015,1.42461522 10.2978454,2.94955546 9.9017744,5.19683581 C9.56012347,7.60000502 9.64057627,10.045454 10.139417,12.4202369 C10.2450359,13.0088104 10.3770596,13.5706304 10.535488,14.1056972 L8.71356147,14.7477773 C3.247782,16.6740176 0,19.563378 0,22.6132585 C0,24.1863548 0.918884664,25.823659 2.61406844,27.2683392 C4.55306033,28.8110157 6.75458947,29.9807178 9.10963245,30.7195198 C9.55323194,30.8800398 10.0021124,31.0298585 10.4562738,31.1689758 L10.0522814,32.9587741 C8.99081115,38.657235 9.89385298,42.9912757 12.4287072,44.4359559 C13.1590913,44.8295889 13.9782327,45.0232453 14.8051331,44.997776 C15.8031506,44.9526357 16.7862773,44.7355008 17.712294,44.3556959 C20.0341105,43.4312976 22.1666762,42.0788062 24.0019011,40.3667733 L25.0633714,39.4036531 C25.5122518,39.8317065 25.9611322,40.2437079 26.4100127,40.6396573 C29.5785805,43.4487577 32.6916984,44.925542 35.1235741,44.925542 C35.9532483,44.9497835 36.7740782,44.7474112 37.5,44.3396439 C38.8466413,43.5370438 39.7576046,41.9318435 40.1774398,39.6845632 C40.5579743,37.1844592 40.4773965,34.6345199 39.9397972,32.1642 L39.6229404,30.7997798 L40.5735108,30.5028177 C46.356147,28.5364474 50,25.4464369 50,22.3162965 C49.9762357,20.7110962 49.0890368,19.186156 47.4017744,17.7414758 L47.3621673,17.9662038 Z M27.5586185,6.03956594 C29.1400677,4.57744955 30.9634809,3.40918596 32.9451838,2.5883854 C34.3710393,2.05064332 35.5592522,1.99446131 36.2880228,2.42786538 C37.0167934,2.86126944 37.6346641,4.03306563 37.8723067,5.63826587 C38.194989,7.93594595 38.10914,10.2735975 37.6188213,12.5406269 L37.3970215,13.5358511 C35.1969385,13.0285845 32.9661511,12.6693057 30.7192649,12.4603669 C29.4133611,10.5833956 27.9842773,8.79758916 26.4416984,7.1150501 C26.7585551,6.74050338 27.1282214,6.38468399 27.5506971,6.04759194 L27.5586185,6.03956594 Z M14.7021546,25.0451369 C15.1457541,25.9172957 15.6210393,26.7921298 16.1280101,27.6696393 C16.6561048,28.5792528 17.1841994,29.4621129 17.712294,30.3182197 C16.1509469,30.1599021 14.5988609,29.9187915 13.0624208,29.5958796 C13.537706,28.2314594 14.0922053,26.7065191 14.7259189,25.1815789 L14.7021546,25.0451369 Z M14.7021546,19.9727041 C14.0842839,18.4878939 13.5535488,17.0030836 13.1178707,15.5905074 C14.5437262,15.2694674 16.0725602,15.0046093 17.6489227,14.7879073 C17.1208281,15.6172608 16.5927334,16.4626662 16.0646388,17.3241237 C15.5365441,18.2230358 15.061259,19.105896 14.6387833,19.9727041 L14.7021546,19.9727041 Z M15.8111534,22.5249725 C16.4448669,21.1605523 17.1577947,19.7961321 17.9340938,18.4317119 C18.7262357,17.0833437 19.5183777,15.7831314 20.3580482,14.5310753 C21.8631179,14.4106852 23.3681876,14.3545032 24.9524715,14.3545032 C26.5367554,14.3545032 28.0418251,14.4106852 29.5468948,14.5310753 C30.418251,15.7670794 31.2103929,17.0672916 31.9233207,18.4317119 C32.6362484,19.7961321 33.4283904,21.1605523 34.1413181,22.4928685 C33.5076046,23.8412367 32.7946768,25.1896049 32.0025349,26.5379731 C31.2103929,27.9023933 30.418251,29.2266835 29.626109,30.4707137 C28.1210393,30.5750517 26.6159696,30.6312338 25.0316857,30.6312338 C23.4474018,30.6312338 22.0215463,30.5750517 20.5164766,30.4707137 C19.7243346,29.2186575 18.8529785,27.9425233 18.0608365,26.5379731 C17.3479087,25.2538129 16.634981,23.8893927 15.9220532,22.5249725 L15.8111534,22.5249725 Z M33.7452471,27.6616133 C34.2733418,26.7627012 34.7750317,25.8664643 35.2503169,24.9729029 C35.8545433,26.4287734 36.3833573,27.9156062 36.8346008,29.4273336 C35.2923982,29.7931455 33.7323952,30.0771175 32.1609632,30.2780897 C32.6890579,29.4326842 33.2171525,28.5685514 33.7452471,27.6856913 L33.7452471,27.6616133 Z M35.2503169,19.9727041 C34.8278411,19.105896 34.352556,18.2230358 33.8244613,17.3241237 C33.2963667,16.4252115 32.7946768,15.5824814 32.3193916,14.7959333 C33.866629,14.9800615 35.4010656,15.2615149 36.913815,15.6386634 C36.4385298,17.110097 35.9104351,18.5547772 35.3295311,19.9727041 L35.2503169,19.9727041 Z M24.9524715,8.65604234 C26.0157575,9.80734789 27.0204405,11.0128116 27.9626109,12.2677429 C27.0120406,12.2249376 26.0350655,12.2035349 25.0316857,12.2035349 C24.0283059,12.2035349 23.0513308,12.2249376 22.1007605,12.2677429 C23.0186731,11.0001429 24.0161954,9.79374667 25.0871356,8.65604234 L24.9524715,8.65604234 Z M11.8821293,5.44564184 C12.1989861,3.98490962 12.7534854,2.91745145 13.4664132,2.45996938 C14.1793409,2.00248731 15.4467681,2.09077332 17.031052,2.66864541 C19.1385252,3.58200091 21.0674865,4.87045568 22.7265526,6.47297 C22.980038,6.68967204 23.225602,6.93045208 23.4790875,7.17123211 C21.9464675,8.8532753 20.5254266,10.6362705 19.2252852,12.5085229 C16.9792914,12.7083993 14.7486091,13.056937 12.5475285,13.5519031 C12.4207858,13.0168364 12.3072455,12.5004969 12.2069075,12.0028849 C11.7231542,9.84418047 11.6265594,7.61491665 11.9217364,5.42156384 L11.8821293,5.44564184 Z M11.0028517,29.0260335 C10.580376,28.8976175 10.1658217,28.7638508 9.75918885,28.6247334 C7.63980084,27.9538323 5.66068217,26.8927107 3.92110266,25.494593 C2.76457541,24.4512128 2.06749049,23.3275726 2.06749049,22.5249725 C2.06749049,20.2776921 5.71134347,17.9983078 9.31558935,16.7221736 C9.87008872,16.5295496 10.4404309,16.3449515 11.0345374,16.1764055 C11.7044822,18.3440772 12.5142095,20.4648299 13.4584918,22.5249725 C12.4981403,24.6342398 11.6777713,26.8060846 11.0028517,29.0260335 Z M22.5681242,38.898015 C18.409379,42.5899756 14.9081115,43.3925757 13.4743346,42.5899756 C11.5731939,41.4663354 11.4147655,37.1322948 12.1276933,33.3359962 C12.2333122,32.7741761 12.3574144,32.212356 12.5,31.6505359 C14.6930182,32.1389114 16.9160669,32.4767711 19.1539924,32.6618121 C20.4610489,34.5480521 21.8900351,36.3444614 23.4315589,38.0392329 L22.5681242,38.898015 Z M25.0237643,36.4902147 C24.0098226,35.3665745 22.9958809,34.1466223 22.0136248,32.8383841 C22.9641952,32.8758388 23.9411703,32.8945661 24.9445501,32.8945661 C25.9479299,32.8945661 26.9513097,32.8731634 27.9546895,32.8303581 C27.0351806,34.0956909 26.0516071,35.3119215 25.0079214,36.4741627 L25.0237643,36.4902147 Z M36.3513942,42.5899756 C34.4502535,43.7136158 30.6717364,41.6669855 27.7804183,39.1387951 C27.3579425,38.7642483 26.9407478,38.3816756 26.528834,37.9910769 C28.0392951,36.2911031 29.4340352,34.4891307 30.7034221,32.5976041 C32.9901946,32.402359 35.2610525,32.0483838 37.5,31.5381719 C37.6056189,31.955524 37.695395,32.36485 37.7693283,32.7661501 C38.7991128,38.3201429 37.7693283,41.7552715 36.3434728,42.5980016 L36.3513942,42.5899756 Z M39.8051331,28.6247334 L38.973384,28.8895915 C38.3002579,26.6951084 37.479797,24.5498363 36.517744,22.4687905 C37.4738988,20.4181746 38.2942593,18.3053402 38.973384,16.1443015 C39.5014787,16.2941202 40.0031686,16.4546402 40.4784537,16.6258616 C42.5390253,17.2712032 44.4701376,18.2821172 46.1818758,19.611534 C47.2908745,20.6067582 47.9879594,21.6581644 47.9879594,22.5008945 C47.9879594,24.1301727 45.4847909,26.7948052 39.9873257,28.6407854 L39.8051331,28.6247334 Z" id="Shape"></path>
        </g>
    </g>
</svg>